<svg width="14" height="9" viewBox="0 0 14 9" fill="none" xmlns="http://www.w3.org/2000/svg">
<path d="M4.35489 0.854632C4.40138 0.808144 4.43826 0.752955 4.46342 0.692215C4.48858 0.631476 4.50153 0.566375 4.50153 0.500632C4.50153 0.434888 4.48858 0.369787 4.46342 0.309048C4.43826 0.248309 4.40138 0.193119 4.35489 0.146631C4.30841 0.100144 4.25322 0.0632672 4.19248 0.0381081C4.13174 0.012949 4.06664 -4.8983e-10 4.00089 0C3.93515 4.8983e-10 3.87005 0.012949 3.80931 0.0381081C3.74857 0.0632672 3.69338 0.100144 3.64689 0.146631L0.146894 3.64663C0.100331 3.69308 0.0633878 3.74825 0.0381813 3.809C0.0129749 3.86974 0 3.93486 0 4.00063C0 4.0664 0.0129749 4.13152 0.0381813 4.19226C0.0633878 4.25301 0.100331 4.30819 0.146894 4.35463L3.64689 7.85463C3.74078 7.94852 3.86812 8.00126 4.00089 8.00126C4.13367 8.00126 4.26101 7.94852 4.35489 7.85463C4.44878 7.76074 4.50153 7.63341 4.50153 7.50063C4.50153 7.36786 4.44878 7.24052 4.35489 7.14663L1.20789 4.00063L4.35489 0.854632ZM8.64689 0.854632C8.55301 0.760745 8.50026 0.633407 8.50026 0.500632C8.50026 0.367856 8.55301 0.240518 8.64689 0.146631C8.74078 0.0527448 8.86812 3.42689e-09 9.00089 0C9.13367 -3.42688e-09 9.26101 0.0527449 9.35489 0.146631L12.8549 3.64663C12.9015 3.69308 12.9384 3.74825 12.9636 3.809C12.9888 3.86974 13.0018 3.93486 13.0018 4.00063C13.0018 4.0664 12.9888 4.13152 12.9636 4.19226C12.9384 4.25301 12.9015 4.30819 12.8549 4.35463L9.35489 7.85463C9.26101 7.94852 9.13367 8.00126 9.00089 8.00126C8.86812 8.00126 8.74078 7.94852 8.64689 7.85463C8.55301 7.76074 8.50026 7.63341 8.50026 7.50063C8.50026 7.36786 8.55301 7.24052 8.64689 7.14663L11.7939 4.00063L8.64689 0.854632Z" fill="#0E0B33"/>
</svg>
