<svg width="50" height="50" viewBox="0 0 50 50" fill="none" xmlns="http://www.w3.org/2000/svg">
<path d="M41.6666 18.75V14.5833C41.6666 12.2917 39.7916 10.4167 37.5 10.4167H31.25C31.25 6.95832 28.4583 4.16666 25 4.16666C21.5416 4.16666 18.75 6.95832 18.75 10.4167H12.5C10.2083 10.4167 8.33331 12.2917 8.33331 14.5833V18.75C4.87498 18.75 2.08331 21.5417 2.08331 25C2.08331 28.4583 4.87498 31.25 8.33331 31.25V39.5833C8.33331 41.875 10.2083 43.75 12.5 43.75H37.5C39.7916 43.75 41.6666 41.875 41.6666 39.5833V31.25C45.125 31.25 47.9166 28.4583 47.9166 25C47.9166 21.5417 45.125 18.75 41.6666 18.75ZM37.5 39.5833H12.5V14.5833H37.5V39.5833ZM18.75 27.0833C17.0208 27.0833 15.625 25.6875 15.625 23.9583C15.625 22.2292 17.0208 20.8333 18.75 20.8333C20.4791 20.8333 21.875 22.2292 21.875 23.9583C21.875 25.6875 20.4791 27.0833 18.75 27.0833ZM34.375 23.9583C34.375 25.6875 32.9791 27.0833 31.25 27.0833C29.5208 27.0833 28.125 25.6875 28.125 23.9583C28.125 22.2292 29.5208 20.8333 31.25 20.8333C32.9791 20.8333 34.375 22.2292 34.375 23.9583ZM16.6666 31.25H33.3333V35.4167H16.6666V31.25Z" fill="#C4C2E7"/>
</svg>
