<svg width="24" height="24" viewBox="0 0 24 24" fill="none" xmlns="http://www.w3.org/2000/svg">
<path fill-rule="evenodd" clip-rule="evenodd" d="M20.2605 18.4861C21.6952 16.6583 22.483 14.4062 22.5007 12.0827C22.5183 9.75917 21.7648 7.49542 20.358 5.64606C19.3202 4.28069 17.9637 3.19031 16.4071 2.47026C14.8506 1.75021 13.1413 1.42239 11.4288 1.51548C9.71634 1.60856 8.0527 2.11971 6.58336 3.00424C5.11403 3.88876 3.88372 5.11974 3 6.58956V3.00006H1.5V8.25006L2.25 9.00006H7.5V7.50006H4.2165C5.21855 5.76773 6.76872 4.41822 8.62256 3.66433C10.4764 2.91044 12.5284 2.79507 14.4551 3.3364C16.3818 3.87772 18.0735 5.04496 19.2634 6.65405C20.4533 8.26313 21.0738 10.2225 21.027 12.2232C20.9802 14.224 20.2687 16.1522 19.0048 17.7039C17.741 19.2555 15.9966 20.3424 14.0467 20.793C12.0968 21.2436 10.0524 21.0324 8.23585 20.1927C6.4193 19.3529 4.93394 17.9324 4.014 16.1551L2.6835 16.8481C3.49369 18.4064 4.68186 19.7367 6.13922 20.717C7.59659 21.6973 9.27659 22.2964 11.0254 22.4593C12.7742 22.6223 14.536 22.344 16.1494 21.6498C17.7628 20.9557 19.1763 19.8679 20.2605 18.4861V18.4861ZM15.219 17.0311L16.281 15.9706L12 11.6881V6.00006H10.5V12.0001L10.719 12.5311L15.219 17.0311V17.0311Z" fill="#C4C2E7"/>
</svg>
